<?xml version="1.0" standalone="no"?>
<!DOCTYPE svg PUBLIC "-//W3C//DTD SVG 20010904//EN"
 "http://www.w3.org/TR/2001/REC-SVG-20010904/DTD/svg10.dtd">
<svg version="1.0" xmlns="http://www.w3.org/2000/svg"
 width="235.000000pt" height="107.000000pt" viewBox="0 0 235.000000 107.000000"
 preserveAspectRatio="xMidYMid meet">

<g transform="translate(0.000000,107.000000) scale(0.100000,-0.100000)"
fill="#000000" stroke="none">
<path d="M1451 708 c-1 -23 -6 -28 -33 -32 -160 -21 -256 -41 -346 -71 -58
-20 -111 -34 -117 -31 -19 7 -56 89 -46 99 5 5 7 16 4 24 -4 9 -12 -4 -22 -34
-19 -56 -10 -129 19 -161 24 -25 53 -82 46 -90 -3 -3 -14 2 -24 11 -10 10 -22
17 -26 17 -4 0 5 -11 21 -24 16 -14 38 -41 48 -60 11 -20 23 -36 28 -36 4 0
19 -12 33 -27 22 -24 21 -22 -5 18 -16 25 -38 66 -47 90 -10 24 -29 59 -42 77
-14 18 -23 34 -21 36 2 2 29 16 59 31 116 59 296 105 406 105 50 0 54 -2 60
-27 3 -16 7 -32 8 -38 2 -5 6 15 10 45 4 32 3 67 -3 80 l-10 25 0 -27z"/>
<path d="M1365 626 c-42 -15 -71 -33 -64 -40 3 -3 23 3 45 15 21 11 47 18 57
15 9 -2 17 -1 17 4 0 14 -25 17 -55 6z"/>
<path d="M1087 530 c-21 -4 -43 -13 -50 -20 -10 -10 -8 -11 8 -5 11 4 50 10
88 12 37 3 67 10 67 14 0 10 -58 10 -113 -1z"/>
<path d="M1352 533 c-6 -2 -10 -9 -6 -14 3 -5 -2 -9 -10 -9 -21 0 -26 -13 -12
-32 11 -15 15 -15 45 -1 24 12 31 21 27 36 -4 16 -1 18 21 13 16 -5 22 -3 18
4 -6 10 -60 13 -83 3z"/>
<path d="M1120 430 c-46 -13 -56 -18 -36 -19 35 -1 106 19 106 31 0 4 -1 8 -2
7 -2 0 -32 -9 -68 -19z"/>
<path d="M1320 352 c0 -18 -48 -26 -67 -11 -14 12 -16 12 -11 -1 2 -8 15 -16
29 -18 26 -3 68 22 56 34 -4 4 -7 2 -7 -4z"/>
<path d="M1336 297 c-25 -12 -64 -19 -107 -20 -73 -2 -77 -12 -14 -41 20 -10
43 -33 56 -56 13 -22 29 -40 36 -40 8 0 6 7 -7 20 -24 24 -43 68 -34 81 3 5
16 6 30 3 15 -4 24 -2 24 6 0 20 24 5 31 -21 7 -22 7 -21 6 6 0 17 5 41 12 53
7 13 11 25 9 26 -2 1 -21 -6 -42 -17z"/>
</g>
</svg>
